<svg xmlns="http://www.w3.org/2000/svg" width="1296" height="241" fill="#fff" xmlns:v="https://vecta.io/nano"><path d="M0 237.141h138.749v-34.729H37.302V3.859H0v233.282z"/><path d="M135.295 237.141h39.742l20.569-57.531h97.263l20.568 57.531h39.742L267.769 3.859h-46.366l-86.108 233.282zm72.512-91.559l36.605-102.433 36.604 102.434h-73.209zM461.193 241c49.852 0 88.548-24.907 105.63-66.652l-37.999-9.121c-12.201 25.959-36.604 39.641-67.631 39.641-48.109 0-82.273-34.379-82.273-84.543s34.164-84.192 82.273-84.192c33.118 0 59.264 15.435 69.026 43.85l38.347-6.314C555.319 27.713 514.182 0 461.193 0c-70.769 0-120.621 49.814-120.621 120.325 0 70.861 49.852 120.675 120.621 120.675zm230.671 0c71.118 0 120.969-49.814 120.969-120.675C812.833 49.814 762.633 0 691.864 0S571.243 49.814 571.243 120.325c0 70.861 49.852 120.675 120.621 120.675zm-82.273-120.675c0-50.165 34.164-84.192 82.273-84.192 48.458 0 82.622 34.028 82.622 84.193s-34.164 84.543-82.622 84.543c-48.109 0-82.273-34.379-82.273-84.543zM901.94 241c43.925 0 74.603-25.608 74.603-64.547 0-69.459-114.694-68.056-114.694-112.958 0-19.645 16.385-29.818 35.21-29.818 22.312 0 38.697 12.98 40.788 40.693l34.165-4.56c0-44.903-32.073-69.81-74.953-69.81-43.577 0-73.557 23.153-73.557 64.197 0 74.019 114.694 69.108 114.694 114.011 0 17.54-14.991 29.116-36.256 29.116-27.192 0-44.971-15.786-48.109-39.64l-36.256 4.911C820.713 212.585 852.088 241 901.94 241zm141.98-3.859h36.95V37.887h70.77V3.859H973.153v34.028h70.767v199.255zm115.07 0H1296v-34.027h-99.7v-69.459h90.29v-32.624h-90.29V37.887h96.21V3.859h-133.52v233.282z"/></svg>