<svg width="74" height="75" viewBox="0 0 74 75" fill="none" xmlns="http://www.w3.org/2000/svg">
<g clip-path="url(#clip0_1685_179477)">
<path d="M20.2438 33.7712V35.9003H24.4146V37.2128H20.2438V39.3566H25.1438V40.6691H18.7708V32.4441H25.0125V33.7566H20.2438V33.7712ZM12.5875 32.4587H11.1292V40.6837H16.9625V39.3712H12.5875V32.4587ZM60.5375 40.6837H55.8271V32.4587H56.5125H59.7354C61.0479 32.4587 62.1125 33.5232 62.1125 34.8357C62.1125 35.3607 61.9375 35.842 61.6604 36.2212C62.375 36.6295 62.8563 37.4024 62.8563 38.292C62.8708 39.5899 61.8354 40.6545 60.5375 40.6837ZM57.3 33.7857L57.3438 35.9003H59.75C60.3333 35.9003 60.8146 35.4191 60.8146 34.8357C60.8146 34.2524 60.3479 33.7712 59.75 33.7712H57.3V33.7857ZM60.4792 39.3712C61.0771 39.3712 61.5583 38.8899 61.5583 38.292C61.5583 37.7087 61.0771 37.2128 60.4792 37.2128H57.3V39.3566L60.4792 39.3712ZM48.6958 49.5941V45.117H50.5625V44.2712H45.925V45.117H47.7333V49.5941H48.6958ZM55.4479 45.117V44.2712H51.3937V49.6087H55.5208V48.7628H52.3417V47.3628H55.0396V46.5024H52.3417V45.117H55.4479ZM19.4125 44.2566H18.4646V49.5941H22.2417V48.7482H19.4125V44.2566ZM46.4208 32.4732V37.1837C46.4208 39.1524 48.025 40.7566 49.9938 40.7566C51.9625 40.7566 53.5667 39.1524 53.5667 37.1837V32.4732H52.1083V37.1837C52.1083 38.3503 51.1604 39.2982 50.0083 39.2982C48.8417 39.2982 47.8937 38.3503 47.8937 37.1837V32.4732H46.4208ZM43.2854 48.8066C42.4833 48.8066 41.8563 48.4566 41.5792 48.2524L41.2583 49.0691C41.4771 49.2441 42.1333 49.7107 43.2708 49.7107C44.4229 49.7107 45.3563 49.0837 45.3563 48.1212C45.3563 46.0941 42.425 46.7357 42.425 45.6274C42.425 45.3212 42.6875 45.0587 43.3583 45.0587C44.175 45.0587 44.7 45.4232 44.9042 45.5837L45.2979 44.7962C45.05 44.5628 44.3063 44.1545 43.3583 44.1545C41.9292 44.1545 41.3604 44.9566 41.3604 45.7441C41.3604 47.5816 44.2917 47.0566 44.2917 48.1503C44.2771 48.6024 43.825 48.8066 43.2854 48.8066ZM37.6417 49.6962C36.1104 49.6962 34.7542 48.6607 34.7542 46.9253C34.7542 45.1753 36.1104 44.1545 37.6417 44.1545C39.1729 44.1545 40.5292 45.1899 40.5292 46.9253C40.5292 48.6753 39.1729 49.6962 37.6417 49.6962ZM37.6417 48.7482C38.6917 48.7482 39.4938 47.9462 39.4938 46.9253C39.4938 45.8899 38.6917 45.1024 37.6417 45.1024C36.5917 45.1024 35.7896 45.9045 35.7896 46.9253C35.7896 47.9607 36.5917 48.7482 37.6417 48.7482ZM39.1729 32.4587V40.6837H45.0063V39.3712H40.6458V32.4587H39.1729ZM28.4542 28.3899C28.2646 28.0399 28.3229 27.5441 28.4542 27.1503C28.5271 26.9607 28.5854 26.8003 28.5854 26.8003C28.075 26.392 27.55 25.2982 27.6813 23.9274C27.7833 22.7899 28.2063 22.1337 28.6 21.5649C28.7604 21.317 28.9354 21.6524 29.0813 21.3753C29.1688 21.2003 29.475 20.5003 29.6646 20.6462C29.825 20.7482 29.8833 20.7191 29.9417 20.6753C30.1896 20.3982 30.3792 19.9607 30.5542 20.0774C30.7 20.1795 30.8021 20.2524 30.9625 20.092C31.2396 19.8003 31.4438 19.567 31.575 19.7857C31.7063 20.0191 31.8667 19.7857 31.9688 19.6837C32.1583 19.4941 32.4062 19.2899 32.5083 19.5378C32.625 19.8003 32.7854 19.6253 33.1208 19.3628C33.5 19.0566 33.4854 19.3482 33.5583 19.4503C33.6313 19.5524 33.7917 19.5378 34.0396 19.3045C34.4479 18.9253 34.5208 19.0566 34.6083 19.2607C34.6958 19.4649 34.9729 19.2607 35.1333 19.1003C35.4104 18.8087 35.4688 18.8816 35.5708 18.9837C35.7021 19.1149 35.775 19.1732 36.2125 18.7503C36.2708 18.692 36.3729 18.6774 36.4313 18.7357C36.5042 18.8087 36.5479 18.9253 36.7667 18.8232C36.9563 18.7357 37.1313 18.3128 37.35 18.4587C37.4813 18.5462 37.5104 18.6774 37.6708 18.5607C37.875 18.4003 38.0063 18.0941 38.1958 18.2837C38.3417 18.4295 38.4583 18.4878 38.925 17.8316C39.0125 17.7149 39.1583 17.7587 39.1583 17.9045C39.1583 18.1087 39.0854 18.9691 37.7 19.7274C35.1188 21.1274 33.8354 20.9232 31.925 21.8712C31.1521 22.2503 30.7438 22.5857 30.8604 22.9066C30.9771 23.2128 31.4438 23.2274 31.9542 23.0962C33.9521 22.542 35.2208 22.4253 35.7458 22.4253C37.6125 22.4107 38.6042 22.892 39.1292 23.0962C39.4354 22.9212 39.8438 22.8045 40.2958 22.9212C41.1417 22.1191 41.6958 22.4545 42.0313 22.4982C42.5563 22.5566 42.8042 22.1191 43.1688 22.7753C43.1688 22.7753 45.4583 22.2503 45.8229 22.1628C46.2604 22.0753 46.4646 22.0607 46.5667 22.2649C46.6688 22.4982 46.4938 22.717 46.3771 22.8045C46.3333 22.8337 46.3042 22.8774 46.2896 22.9212C46.2021 23.1399 46.2313 23.2128 46.1146 23.2566C46.0125 23.3003 45.7646 23.0524 45.6771 23.0816C45.4875 23.1399 45.5167 23.4607 45.4146 23.5045C45.3125 23.5482 45.0646 23.3003 44.9771 23.3295C44.7875 23.3878 44.8167 23.7087 44.7146 23.7524C44.6125 23.7962 44.3646 23.5482 44.2625 23.5774C44.0729 23.6357 44.1021 23.9566 44 24.0003C43.8979 24.0441 43.65 23.7962 43.5479 23.8253C43.3583 23.8837 43.4021 24.1899 43.2854 24.2482C43.2125 24.292 43.0667 24.1899 42.9208 24.0878C42.775 23.9857 42.7021 24.0295 42.6292 24.0587C42.4688 24.1024 42.1917 24.2482 41.725 24.0878C41.1708 23.9128 40.9375 23.942 40.5146 24.1024C40.1208 24.2482 39.9167 24.1607 39.7562 24.117C39.7562 24.117 39.7417 24.5691 40.2667 24.5107C40.4854 24.4816 40.8646 24.3649 41.1708 24.4524C41.7688 24.6128 41.6229 24.8899 42.3958 25.4003C42.6292 25.517 42.8625 25.2545 43.0375 25.3274C43.125 25.3566 43.1979 25.6774 43.3 25.7066C43.4021 25.7212 43.5771 25.4587 43.7521 25.5024C43.8542 25.5316 43.8979 25.8524 44 25.867C44.1021 25.8816 44.2917 25.6337 44.4521 25.6774C44.5833 25.7066 44.5979 26.0128 44.7438 26.042C44.8458 26.0566 45.0208 25.8087 45.1667 25.8378C45.2833 25.867 45.2979 25.9982 45.4729 26.0857C45.6333 26.1587 45.7938 26.1587 45.8521 26.0566C45.925 25.9399 45.8375 25.8232 45.6042 25.7212C45.2396 25.5607 44.6417 25.4003 44.0292 25.2253C43.4313 25.0649 42.9062 24.8462 42.8625 24.5399C42.8479 24.4087 42.9062 24.4232 42.9354 24.4378C42.95 24.4378 43.0958 24.5545 43.1688 24.6128C43.4167 24.7732 43.6063 24.8024 43.6938 24.817C43.825 24.8316 43.9708 24.5982 44.1312 24.6566C44.2042 24.6857 44.2333 24.9774 44.3208 25.0066C44.4083 25.0357 44.5542 24.8024 44.7 24.8607C44.7729 24.8899 44.8167 25.167 44.9042 25.1962C44.9917 25.2253 45.1375 25.0066 45.2833 25.0503C45.3563 25.0795 45.3854 25.3712 45.4729 25.4003C45.5604 25.4295 45.6917 25.2107 45.8375 25.2545C45.9104 25.2837 45.9688 25.517 46.1729 25.5753C46.3188 25.6191 46.45 25.6337 46.6104 25.7212C46.8146 25.8378 46.8875 26.1587 46.45 26.3628C46.0417 26.567 45.5458 26.5962 44.9042 26.6107C44.2479 26.6253 42.2792 26.6107 40.9229 26.3045C39.8292 26.9899 38.1667 27.2524 36.1833 27.1795C36.1833 27.1795 36.1396 27.3691 36.4021 27.4128C37.2188 27.5732 37.3063 27.7482 37.3646 27.8649C37.4813 28.0982 37.3792 28.4045 37.2333 28.4191C37.2042 28.4191 37.1458 28.3899 37.0729 28.3316C36.8688 28.1857 36.7083 28.142 36.7229 28.5066C36.7229 28.7982 36.5771 28.7982 36.4458 28.667C36.125 28.3462 36.0375 28.4774 36.0521 28.7691C36.0521 29.0607 35.9063 29.1045 35.7167 28.9003C35.5563 28.7253 35.4396 28.6524 35.3667 29.0607C35.3229 29.3524 35.0896 29.3378 34.9729 29.0462C34.8854 28.8128 34.8125 28.492 34.5646 28.3024C34.3021 28.0837 34.1563 27.9378 34.1417 27.5878C34.1417 27.1066 34.4771 26.7128 34.9729 26.5087C34.6813 26.3045 34.3604 26.5816 34.0833 26.8441C33.8354 27.0774 33.7188 27.3107 33.4708 27.3545C32.7708 27.4712 31.1667 27.3691 30.9188 27.2962C30.7292 26.8732 30.3063 26.8441 30.1896 26.8441C30.4521 26.2899 30.3063 25.9837 30.2333 25.8524C30.1604 25.7212 30.0437 25.6191 29.8979 25.5607C29.825 25.5316 29.7521 25.5024 29.6646 25.5462C30.2333 25.9253 30.175 26.3482 29.6792 27.1357C29.6792 27.1357 29.9271 27.092 30.1604 27.1357C30.4813 27.1941 30.8021 27.3691 30.6417 28.0399C30.5833 28.2587 30.5396 28.4191 30.35 28.3024C30.0438 28.0982 29.9708 28.142 29.9271 28.2441C29.8542 28.3899 29.9417 28.8712 29.5771 28.6087C29.3292 28.4337 29.2563 28.4191 29.1833 28.6816C29.0521 29.2795 28.6292 28.7253 28.4542 28.3899ZM42.5563 22.892L42.9208 22.8045C42.9208 22.7462 42.8479 22.5857 42.6875 22.5857C42.6 22.5857 42.5271 22.6587 42.4833 22.7607C42.4542 22.8482 42.4542 22.9066 42.5563 22.892ZM41.2583 23.0378C41.2729 23.1253 41.3458 23.1691 41.4479 23.1399C41.6083 23.0962 41.9875 23.0087 41.9875 23.0087C41.9583 22.9212 41.7979 22.7316 41.55 22.7316C41.3458 22.7462 41.2438 22.9357 41.2583 23.0378ZM32.3771 25.1524C32.3917 25.1232 32.3625 25.0941 32.3188 25.1087C32.1292 25.1378 31.9396 25.2107 31.7792 25.2982C31.75 25.3128 31.75 25.342 31.7792 25.3566C31.9396 25.4295 32.0854 25.5024 32.2313 25.5607C32.2604 25.5753 32.2896 25.5607 32.3042 25.5316C32.3188 25.4003 32.3479 25.2837 32.3771 25.1524ZM33.3104 24.8753C33.3104 24.8462 33.2958 24.8316 33.2521 24.8316C33.0625 24.8607 32.8875 24.9337 32.7125 25.0212C32.6833 25.0357 32.6833 25.0649 32.7125 25.0795C32.8729 25.1524 33.0188 25.2253 33.1646 25.2837C33.1938 25.2982 33.2229 25.2837 33.2229 25.2545C33.2521 25.1232 33.2812 24.992 33.3104 24.8753ZM35.1917 24.5545C35.2063 24.5253 35.1771 24.5107 35.1333 24.5107C34.9437 24.5399 34.7542 24.6128 34.5938 24.7003C34.5646 24.7149 34.5646 24.7441 34.5938 24.7587C34.7542 24.8316 34.9 24.9045 35.0458 24.9774C35.075 24.992 35.1042 24.9774 35.1042 24.9482C35.1333 24.8024 35.1625 24.6857 35.1917 24.5545ZM36.0958 24.5837C36.1104 24.5545 36.0813 24.5399 36.0375 24.5399C35.8479 24.5837 35.6729 24.642 35.4979 24.7295C35.4688 24.7441 35.4688 24.7732 35.4979 24.7878C35.6583 24.8607 35.8042 24.9337 35.95 24.992C35.9792 25.0066 36.0083 24.992 36.0083 24.9628C36.0521 24.8316 36.0667 24.7003 36.0958 24.5837ZM37.5833 23.6212C37.7438 23.6941 37.8896 23.767 38.0354 23.8399C38.0646 23.8545 38.0938 23.8399 38.0938 23.8107C38.1229 23.6795 38.1521 23.5482 38.1813 23.4316C38.1958 23.4024 38.1667 23.3732 38.1229 23.3878C37.9333 23.4316 37.7583 23.4899 37.5833 23.5774C37.5396 23.5774 37.5542 23.6066 37.5833 23.6212ZM36.7375 23.3295C36.8979 23.4024 37.0438 23.4753 37.1896 23.5482C37.2188 23.5628 37.2479 23.5482 37.2625 23.5191C37.2917 23.3878 37.3208 23.2566 37.3354 23.1399C37.35 23.1107 37.3208 23.0962 37.2771 23.0962C37.0875 23.1399 36.8979 23.1982 36.7375 23.2857C36.6938 23.2857 36.6938 23.3149 36.7375 23.3295ZM36.5625 24.1462C36.7229 24.2191 36.8688 24.292 37.0146 24.3649C37.0438 24.3795 37.0729 24.3649 37.0729 24.3357C37.1021 24.2045 37.1313 24.0732 37.1604 23.9566C37.1604 23.9274 37.1458 23.9128 37.1021 23.9128C36.9125 23.9566 36.7375 24.0149 36.5625 24.1024C36.5333 24.1024 36.5333 24.1316 36.5625 24.1462ZM35.8479 23.1982C36.0083 23.2712 36.1542 23.3441 36.3 23.4024C36.3292 23.417 36.3583 23.4024 36.3583 23.3732C36.3875 23.242 36.4167 23.1107 36.4458 22.9941C36.4604 22.9649 36.4313 22.9503 36.3875 22.9503C36.1979 22.9941 36.0229 23.0524 35.8479 23.1399C35.8042 23.1545 35.8042 23.1837 35.8479 23.1982ZM35.6729 23.9857C35.8333 24.0587 35.9792 24.1316 36.125 24.1899C36.1542 24.2045 36.1833 24.1899 36.1833 24.1607C36.2125 24.0295 36.2417 23.8982 36.2708 23.7816C36.2854 23.7524 36.2562 23.7232 36.2125 23.7378C36.0229 23.7816 35.8333 23.8399 35.6729 23.9274C35.6292 23.942 35.6437 23.9712 35.6729 23.9857ZM34.9146 23.1253C34.8854 23.1399 34.8854 23.1691 34.9146 23.1837C35.075 23.2566 35.2208 23.3295 35.3667 23.3878C35.3958 23.4024 35.425 23.3878 35.425 23.3587C35.4542 23.2274 35.4833 23.0962 35.5125 22.9795C35.5271 22.9503 35.4979 22.9212 35.4542 22.9357C35.2792 22.9795 35.0896 23.0378 34.9146 23.1253ZM34.7542 23.9128C34.725 23.9274 34.725 23.9566 34.7542 23.9712C34.9146 24.0441 35.0604 24.117 35.2063 24.1899C35.2354 24.2045 35.2646 24.1899 35.2792 24.1607C35.3083 24.0295 35.3375 23.8982 35.3667 23.7816C35.3667 23.7524 35.3521 23.7378 35.3083 23.7378C35.1042 23.7524 34.9146 23.8253 34.7542 23.9128ZM33.9958 23.2712C34.1562 23.3441 34.3021 23.417 34.4479 23.4899C34.4771 23.5045 34.5063 23.4899 34.5063 23.4607C34.5354 23.3295 34.5646 23.1982 34.5938 23.0816C34.6083 23.0524 34.5792 23.0232 34.5354 23.0378C34.3458 23.0816 34.1708 23.1399 33.9958 23.2274C33.9667 23.2274 33.9667 23.2566 33.9958 23.2712ZM33.8208 24.0003C33.7917 24.0149 33.7917 24.0441 33.8208 24.0587C33.9813 24.1316 34.1271 24.2045 34.2729 24.2628C34.3021 24.2774 34.3313 24.2628 34.3458 24.2337C34.375 24.1024 34.4042 23.9712 34.4188 23.8545C34.4333 23.8253 34.4042 23.8107 34.3604 23.8107C34.1854 23.8545 33.9958 23.9128 33.8208 24.0003ZM33.6604 24.8607C33.8208 24.9337 33.9667 25.0066 34.1125 25.0649C34.1417 25.0795 34.1708 25.0649 34.1708 25.0357C34.2 24.9045 34.2292 24.7732 34.2583 24.6566C34.2729 24.6274 34.2438 24.6128 34.2 24.6128C34.0104 24.642 33.8354 24.7149 33.6604 24.8024C33.6313 24.817 33.6313 24.8462 33.6604 24.8607ZM33.0625 23.4462C33.2229 23.5191 33.3688 23.592 33.5146 23.6649C33.5438 23.6795 33.5729 23.6649 33.5729 23.6357C33.6021 23.5045 33.6313 23.3732 33.6604 23.2566C33.6604 23.2274 33.6458 23.2128 33.6021 23.2128C33.4125 23.242 33.2229 23.3149 33.0625 23.4024C33.0187 23.4024 33.0333 23.4316 33.0625 23.4462ZM32.8875 24.2774C33.0479 24.3503 33.1938 24.4232 33.3396 24.4816C33.3687 24.4962 33.3979 24.4816 33.3979 24.4524C33.4271 24.3212 33.4563 24.1899 33.4854 24.0732C33.4854 24.0441 33.4708 24.0295 33.4271 24.0295C33.2375 24.0732 33.0479 24.1316 32.8875 24.2191C32.8438 24.2337 32.8438 24.2628 32.8875 24.2774ZM32.1292 23.6066C32.1 23.6212 32.1 23.6503 32.1292 23.6649C32.2896 23.7378 32.4354 23.8107 32.5812 23.8837C32.6104 23.8982 32.6396 23.8837 32.6396 23.8545C32.6542 23.7232 32.6979 23.6066 32.7271 23.4753C32.7271 23.4462 32.7125 23.4316 32.6688 23.4316C32.4938 23.4607 32.3042 23.5191 32.1292 23.6066ZM31.9396 24.4816C31.9104 24.4962 31.9104 24.5253 31.9396 24.5399C32.1 24.6128 32.2458 24.6857 32.3917 24.7587C32.4208 24.7732 32.45 24.7587 32.45 24.7295C32.4792 24.5982 32.5083 24.4816 32.5375 24.3503C32.5521 24.3212 32.5229 24.3066 32.4792 24.3066C32.3042 24.3357 32.1146 24.3941 31.9396 24.4816ZM31.2104 23.942C31.3708 24.0149 31.5167 24.0878 31.6625 24.1462C31.6917 24.1607 31.7208 24.1462 31.7208 24.117C31.75 23.9857 31.7792 23.8545 31.8083 23.7378C31.8229 23.7087 31.7938 23.6941 31.75 23.6941C31.5604 23.7378 31.3708 23.7962 31.2104 23.8837C31.1813 23.8982 31.1813 23.9128 31.2104 23.942ZM31.0354 24.7149C31.0063 24.7295 31.0063 24.7587 31.0354 24.7732C31.1958 24.8462 31.3417 24.9191 31.4875 24.9774C31.5167 24.992 31.5458 24.9774 31.5604 24.9482C31.5896 24.817 31.6188 24.6857 31.6479 24.5691C31.6625 24.5399 31.6333 24.5253 31.5896 24.5253C31.3854 24.5691 31.1958 24.6274 31.0354 24.7149ZM31.0646 20.6024C31.225 20.6753 31.3708 20.7482 31.5167 20.8212C31.5458 20.8357 31.575 20.8212 31.575 20.792C31.6042 20.6607 31.6333 20.5295 31.6625 20.4128C31.6771 20.3837 31.6479 20.3691 31.6042 20.3691C31.4146 20.4128 31.225 20.4712 31.0646 20.5587C31.0354 20.5587 31.0354 20.5878 31.0646 20.6024ZM29.9125 24.1899C29.9271 24.1607 29.8979 24.1462 29.8542 24.1462C29.6646 24.1753 29.475 24.2482 29.3146 24.3357C29.2854 24.3503 29.2854 24.3795 29.3146 24.3941C29.475 24.467 29.6208 24.5399 29.7667 24.5982C29.7958 24.6128 29.825 24.5982 29.8396 24.5691C29.8542 24.4524 29.8833 24.3212 29.9125 24.1899ZM29.6792 22.6587C29.65 22.6732 29.65 22.7024 29.6792 22.717C29.8396 22.7899 29.9854 22.8628 30.1313 22.9212C30.1604 22.9357 30.1896 22.9212 30.2042 22.892C30.2333 22.7607 30.2625 22.6295 30.2917 22.5128C30.3062 22.4837 30.2771 22.4691 30.2333 22.4691C30.0292 22.5128 29.8396 22.5712 29.6792 22.6587ZM30.525 22.2503C30.5542 22.2649 30.5833 22.2503 30.5833 22.2212C30.6125 22.0899 30.6417 21.9587 30.6708 21.842C30.6854 21.8128 30.6563 21.7982 30.6125 21.7982C30.4229 21.842 30.2479 21.9003 30.0729 21.9878C30.0438 22.0024 30.0438 22.0316 30.0729 22.0462C30.2333 22.1191 30.3792 22.1774 30.525 22.2503ZM30.2188 23.6649C30.2479 23.6795 30.2771 23.6649 30.2771 23.6357C30.3062 23.5045 30.3354 23.3732 30.3646 23.2566C30.3792 23.2274 30.35 23.1982 30.3062 23.2128C30.1167 23.242 29.9271 23.3149 29.7667 23.4024C29.7375 23.417 29.7375 23.4462 29.7667 23.4607C29.9271 23.5337 30.0729 23.6066 30.2188 23.6649ZM30.7292 24.6128C30.7292 24.5837 30.7146 24.5545 30.6708 24.5691C30.4813 24.6128 30.3063 24.6712 30.1313 24.7587C30.1021 24.7732 30.1021 24.8024 30.1313 24.817C30.2917 24.8899 30.4375 24.9628 30.5833 25.0357C30.6125 25.0503 30.6417 25.0357 30.6417 25.0066C30.6708 24.8607 30.7 24.7295 30.7292 24.6128ZM30.8458 23.767C30.6563 23.8107 30.4813 23.8691 30.3062 23.9566C30.2771 23.9712 30.2771 24.0003 30.3062 24.0149C30.4667 24.0878 30.6125 24.1607 30.7583 24.2337C30.7875 24.2482 30.8167 24.2337 30.8167 24.2045C30.8458 24.0732 30.875 23.942 30.9042 23.8253C30.9042 23.7816 30.875 23.7524 30.8458 23.767ZM30.2479 20.9378C30.2188 20.9524 30.2188 20.9816 30.2479 20.9962C30.4083 21.0691 30.5542 21.142 30.7 21.2149C30.7292 21.2295 30.7583 21.2149 30.7583 21.1857C30.7875 21.0545 30.8167 20.9232 30.8458 20.8066C30.8604 20.7774 30.8313 20.7628 30.7875 20.7628C30.5979 20.792 30.4229 20.8503 30.2479 20.9378ZM29.5042 21.5066C29.6646 21.5795 29.8104 21.6524 29.9563 21.7107C29.9854 21.7253 30.0146 21.7107 30.0292 21.6816C30.0583 21.5503 30.0875 21.4191 30.1167 21.3024C30.1313 21.2732 30.1021 21.2441 30.0583 21.2587C29.8687 21.3024 29.6792 21.3607 29.5188 21.4482C29.475 21.4628 29.475 21.492 29.5042 21.5066ZM28.95 22.1628C29.1104 22.2357 29.2563 22.3087 29.4021 22.367C29.4313 22.3816 29.4604 22.367 29.475 22.3378C29.5042 22.2066 29.5333 22.0753 29.5625 21.9587C29.5625 21.9295 29.5479 21.9149 29.5042 21.9149C29.3146 21.9587 29.1396 22.017 28.9646 22.1045C28.9062 22.1191 28.9208 22.1482 28.95 22.1628ZM28.7458 22.9212C28.9063 22.9941 29.0521 23.067 29.1979 23.1399C29.2271 23.1545 29.2563 23.1399 29.2708 23.1107C29.3 22.9795 29.3292 22.8482 29.3583 22.7316C29.3729 22.7024 29.3438 22.6732 29.3 22.6878C29.1104 22.717 28.9208 22.7899 28.7458 22.8774C28.7021 22.8774 28.7021 22.9066 28.7458 22.9212ZM29.3 23.8837C29.3292 23.8982 29.3583 23.8837 29.3583 23.8545C29.3875 23.7232 29.4167 23.592 29.4458 23.4753C29.4458 23.4462 29.4313 23.4316 29.3875 23.4316C29.1979 23.4753 29.0083 23.5337 28.8333 23.6212C28.8042 23.6357 28.8042 23.6649 28.8333 23.6795C29.0083 23.7524 29.1542 23.8253 29.3 23.8837ZM33.9229 33.7566C35.1625 33.7566 35.8479 34.4274 36.2417 34.7774L37.2625 33.7712C36.9271 33.392 35.95 32.2837 33.9083 32.2837C31.5458 32.2837 29.4604 33.8732 29.4604 36.5566C29.4604 39.2545 31.5313 40.8295 33.8792 40.8295C35.6875 40.8295 36.9271 39.8524 37.3208 39.4878L36.5042 38.3357C35.8479 38.8753 34.8271 39.3566 33.8938 39.3566C32.2604 39.3566 31.0354 38.1316 31.0354 36.542C31.0354 34.9816 32.275 33.7566 33.9229 33.7566ZM31.9688 48.7482C30.9187 48.7482 30.1167 47.9462 30.1167 46.9253C30.1167 45.8899 30.9188 45.1024 31.9833 45.1024C32.7854 45.1024 33.2229 45.5399 33.4854 45.7587L34.1417 45.1024C33.9229 44.8545 33.2958 44.1399 31.9688 44.1399C30.4375 44.1399 29.0813 45.1753 29.0813 46.9107C29.0813 48.6607 30.4229 49.6816 31.9542 49.6816C33.1354 49.6816 33.9375 49.0399 34.1854 48.8212L33.6604 48.0774C33.2375 48.442 32.5667 48.7482 31.9688 48.7482ZM26.3396 44.2566L28.9063 49.5941H27.7833L27.2292 48.3837H24.4L23.8896 49.5941H22.8979L25.2604 44.2566H26.3396ZM26.85 47.567L25.7708 45.2045L24.75 47.567H26.85ZM36.4896 2.19824L2 36.6878L3.02083 37.7087L37.5104 3.21908L36.4896 2.19824ZM70.9792 36.6878L36.4896 71.1774L37.5104 72.1982L72 37.7087L70.9792 36.6878Z" fill="white"/>
</g>
<defs>
<clipPath id="clip0_1685_179477">
<rect width="70" height="70" fill="white" transform="translate(2 2.19824)"/>
</clipPath>
</defs>
</svg>
